# xmcd CD database file
#
# Track frame offsets:
#	150
#	10604
#	42566
#	47420
#	80265
#	119146
#
# Disc length: 1606 seconds
#
# Revision: 0
# Processed by: cddbd v1.5.2PL0 Copyright (c) Steve Scherf et al.
# Submitted via: CDex 1.51
#
DISCID=43064406
DTITLE=Hans Salomon und James Carter Quintet - ORF: On Stage
DYEAR=2008
DGENRE=Jazz
TTITLE0=Intro
TTITLE1=Voce Vai Ver
TTITLE2=Flor de lis (part 1)
TTITLE3=Flor de lis (part 2)
TTITLE4=Dindi
TTITLE5=Trailer
EXTD=YEAR: 2008
EXTT0=
EXTT1=
EXTT2=
EXTT3=
EXTT4=
EXTT5=
PLAYORDER=
